<svg width="918" height="918" viewBox="0 0 918 918" fill="none" xmlns="http://www.w3.org/2000/svg">
<g clip-path="url(#clip0_31_3)">
<path d="M917.52 458.76C917.52 587.12 864.8 703.16 779.84 786.42C779.31 786.94 778.77 787.46 778.23 787.98C771.26 794.74 764.08 801.29 756.68 807.61C742.1 820.1 726.72 831.67 710.64 842.25C638.34 889.84 551.78 917.52 458.76 917.52C365.74 917.52 279.18 889.84 206.88 842.25C190.8 831.67 175.42 820.1 160.84 807.61C153.44 801.29 146.26 794.74 139.29 787.98C138.75 787.46 138.21 786.94 137.68 786.42C52.72 703.15 0 587.12 0 458.76C0 205.39 205.39 0 458.76 0C712.13 0 917.52 205.39 917.52 458.76Z" fill="#E0E0E0"/>
<path d="M778.23 787.97C771.26 794.73 764.08 801.28 756.68 807.6C742.1 820.09 726.72 831.66 710.64 842.24C638.34 889.83 551.78 917.51 458.76 917.51C365.74 917.51 279.18 889.83 206.88 842.24C190.8 831.66 175.42 820.09 160.84 807.6C153.44 801.28 146.26 794.73 139.29 787.97C156.58 734.39 198.86 690.96 254.63 673.36L390.42 630.48V608.09C373.4 597.98 358.19 586.42 345.65 577.95C322.32 562.21 306.62 537.54 301.98 509.79L294.74 466.47C272.06 466.47 253.73 448.14 253.73 425.46C253.73 408.6 263.85 394.14 278.37 387.85C265.69 358.12 256.39 326.61 250.8 294.3C247.25 273.83 245.25 252.24 251.26 232.5C257.26 212.76 273.16 195.44 291.92 195.1L294.38 195.27C306.22 176.78 324.72 164.6 344.14 157.56C363.56 150.51 384.06 148.12 404.37 145.78C412.31 144.87 420.29 143.94 428.29 143.14C465.18 139.59 505.35 138.73 543.07 149.23C580.8 159.74 617.25 183.3 636.46 220.86C651.72 250.66 654.81 286.61 650.97 320.62C648.43 343.19 643.02 365.16 636.67 386.85C652.5 392.52 663.79 407.65 663.79 425.46C663.79 448.14 645.48 466.47 622.78 466.47L615.54 509.79C610.9 537.54 595.21 562.21 571.88 577.95C559.32 586.42 544.13 597.98 527.11 608.09V630.48L662.89 673.36C718.67 690.97 760.95 734.4 778.25 787.97H778.23Z" fill="#9E9E9E"/>
</g>
<defs>
<clipPath id="clip0_31_3">
<rect width="917.52" height="917.52" fill="white"/>
</clipPath>
</defs>
</svg>
