<svg width="718" height="283" viewBox="0 0 718 283" fill="none" xmlns="http://www.w3.org/2000/svg">
<rect y="25" width="92" height="224" rx="6" fill="#F8FAFC"/>
<rect x="107" y="25" width="92" height="119" rx="6" fill="#F8FAFC"/>
<path d="M307.202 75.4519C307.202 82.9818 306.03 89.5496 303.688 95.1552C301.345 100.677 298.04 105.279 293.773 108.96C289.506 112.558 284.403 115.277 278.463 117.118C272.522 118.875 265.996 119.753 258.885 119.753C255.371 119.753 251.48 119.586 247.213 119.251C243.03 119 239.223 118.456 235.793 117.62V33.2842C239.223 32.4476 243.03 31.9037 247.213 31.6527C251.48 31.3181 255.371 31.1507 258.885 31.1507C265.996 31.1507 272.522 32.0711 278.463 33.9117C284.403 35.6687 289.506 38.3878 293.773 42.0691C298.04 45.6668 301.345 50.2684 303.688 55.874C306.03 61.396 307.202 67.9219 307.202 75.4519ZM259.889 109.086C271.435 109.086 280.052 106.157 285.741 100.301C291.431 94.3604 294.275 86.0774 294.275 75.4519C294.275 64.8263 291.431 56.5852 285.741 50.7286C280.052 44.7883 271.435 41.8181 259.889 41.8181C256.458 41.8181 253.781 41.86 251.857 41.9436C250.016 42.0273 248.719 42.111 247.966 42.1946V108.709C248.719 108.793 250.016 108.876 251.857 108.96C253.781 109.044 256.458 109.086 259.889 109.086ZM382.111 86.3703C382.111 91.5576 381.358 96.2429 379.852 100.426C378.346 104.609 376.213 108.207 373.452 111.219C370.774 114.231 367.553 116.574 363.788 118.247C360.023 119.837 355.924 120.631 351.489 120.631C347.055 120.631 342.955 119.837 339.19 118.247C335.425 116.574 332.162 114.231 329.401 111.219C326.724 108.207 324.632 104.609 323.126 100.426C321.62 96.2429 320.867 91.5576 320.867 86.3703C320.867 81.2666 321.62 76.6232 323.126 72.4399C324.632 68.1729 326.724 64.5335 329.401 61.5215C332.162 58.5095 335.425 56.2087 339.19 54.619C342.955 52.9457 347.055 52.1091 351.489 52.1091C355.924 52.1091 360.023 52.9457 363.788 54.619C367.553 56.2087 370.774 58.5095 373.452 61.5215C376.213 64.5335 378.346 68.1729 379.852 72.4399C381.358 76.6232 382.111 81.2666 382.111 86.3703ZM369.938 86.3703C369.938 79.0077 368.264 73.1929 364.918 68.9259C361.655 64.5753 357.179 62.4 351.489 62.4C345.8 62.4 341.282 64.5753 337.935 68.9259C334.672 73.1929 333.041 79.0077 333.041 86.3703C333.041 93.7329 334.672 99.5895 337.935 103.94C341.282 108.207 345.8 110.341 351.489 110.341C357.179 110.341 361.655 108.207 364.918 103.94C368.264 99.5895 369.938 93.7329 369.938 86.3703ZM398.532 55.623C401.209 54.9537 404.765 54.2425 409.199 53.4895C413.633 52.7365 418.737 52.3601 424.51 52.3601C429.697 52.3601 434.006 53.113 437.436 54.619C440.867 56.0414 443.586 58.0912 445.594 60.7685C447.685 63.3621 449.15 66.4996 449.986 70.1809C450.823 73.8622 451.241 77.92 451.241 82.3543V119H439.57V84.8643C439.57 80.8483 439.277 77.418 438.691 74.5734C438.189 71.7287 437.311 69.4279 436.056 67.6709C434.801 65.9139 433.128 64.659 431.036 63.906C428.944 63.0693 426.351 62.651 423.255 62.651C422 62.651 420.703 62.6928 419.365 62.7765C418.026 62.8601 416.729 62.9856 415.474 63.153C414.303 63.2366 413.215 63.3621 412.211 63.5295C411.291 63.6968 410.621 63.8223 410.203 63.906V119H398.532V55.623ZM481.514 53.7405H506.237V63.5295H481.514V93.6492C481.514 96.9122 481.765 99.6313 482.267 101.807C482.769 103.898 483.522 105.572 484.526 106.827C485.53 107.998 486.785 108.835 488.291 109.337C489.797 109.839 491.554 110.09 493.562 110.09C497.076 110.09 499.879 109.713 501.97 108.96C504.146 108.123 505.652 107.538 506.488 107.203L508.747 116.867C507.576 117.452 505.526 118.163 502.598 119C499.669 119.92 496.323 120.38 492.558 120.38C488.124 120.38 484.442 119.837 481.514 118.749C478.669 117.578 476.369 115.863 474.612 113.604C472.855 111.345 471.6 108.584 470.847 105.321C470.177 101.974 469.843 98.1253 469.843 93.7747V35.5432L481.514 33.5352V53.7405Z" fill="#F8FAFC"/>
<path d="M237.288 251.746V145.304H308.556V165.425H261.249V187.696H303.334V207.817H261.249V251.746H237.288ZM398.018 211.196C398.018 217.545 397.097 223.382 395.254 228.706C393.411 233.929 390.748 238.434 387.267 242.223C383.785 245.909 379.587 248.776 374.672 250.824C369.859 252.872 364.432 253.896 358.391 253.896C352.452 253.896 347.025 252.872 342.11 250.824C337.297 248.776 333.15 245.909 329.668 242.223C326.187 238.434 323.473 233.929 321.528 228.706C319.582 223.382 318.609 217.545 318.609 211.196C318.609 204.848 319.582 199.062 321.528 193.84C323.576 188.618 326.34 184.163 329.822 180.477C333.406 176.791 337.604 173.924 342.417 171.876C347.332 169.828 352.656 168.804 358.391 168.804C364.227 168.804 369.552 169.828 374.365 171.876C379.28 173.924 383.478 176.791 386.96 180.477C390.441 184.163 393.155 188.618 395.1 193.84C397.046 199.062 398.018 204.848 398.018 211.196ZM374.672 211.196C374.672 204.131 373.238 198.601 370.371 194.608C367.606 190.512 363.613 188.464 358.391 188.464C353.168 188.464 349.124 190.512 346.257 194.608C343.39 198.601 341.956 204.131 341.956 211.196C341.956 218.262 343.39 223.894 346.257 228.092C349.124 232.188 353.168 234.236 358.391 234.236C363.613 234.236 367.606 232.188 370.371 228.092C373.238 223.894 374.672 218.262 374.672 211.196ZM464.437 191.229C462.389 190.717 459.982 190.205 457.218 189.693C454.453 189.079 451.483 188.771 448.309 188.771C446.875 188.771 445.135 188.925 443.087 189.232C441.141 189.437 439.656 189.693 438.632 190V251.746H415.747V175.255C419.843 173.821 424.655 172.49 430.185 171.261C435.817 169.93 442.063 169.265 448.923 169.265C450.152 169.265 451.637 169.367 453.378 169.572C455.118 169.674 456.859 169.879 458.6 170.186C460.341 170.391 462.081 170.698 463.822 171.108C465.563 171.415 467.048 171.825 468.276 172.337L464.437 191.229ZM498.552 208.739C498.552 221.538 503.723 227.938 514.065 227.938C516.42 227.938 518.621 227.631 520.669 227.017C522.717 226.402 524.458 225.686 525.892 224.866V188.311C524.765 188.106 523.434 187.952 521.898 187.85C520.362 187.645 518.57 187.543 516.522 187.543C510.481 187.543 505.975 189.539 503.006 193.533C500.036 197.526 498.552 202.595 498.552 208.739ZM548.777 241.608C548.777 254.818 545.398 264.596 538.64 270.945C531.984 277.396 521.642 280.622 507.614 280.622C502.699 280.622 497.784 280.161 492.869 279.239C487.954 278.42 483.397 277.294 479.199 275.86L483.192 256.661C486.776 258.094 490.513 259.221 494.405 260.04C498.398 260.859 502.904 261.269 507.921 261.269C514.474 261.269 519.082 259.835 521.745 256.968C524.509 254.101 525.892 250.414 525.892 245.909V242.991C523.434 244.117 520.874 244.987 518.212 245.602C515.652 246.114 512.836 246.37 509.764 246.37C498.603 246.37 490.053 243.093 484.114 236.54C478.175 229.884 475.205 220.617 475.205 208.739C475.205 202.8 476.127 197.424 477.97 192.611C479.813 187.696 482.475 183.498 485.957 180.016C489.541 176.535 493.893 173.873 499.012 172.029C504.132 170.084 509.918 169.111 516.369 169.111C519.133 169.111 521.949 169.265 524.817 169.572C527.786 169.777 530.704 170.084 533.571 170.493C536.439 170.903 539.152 171.415 541.712 172.029C544.374 172.541 546.73 173.105 548.777 173.719V241.608ZM566.403 211.964C566.403 204.797 567.478 198.55 569.628 193.226C571.881 187.799 574.799 183.293 578.383 179.709C581.967 176.125 586.063 173.412 590.671 171.569C595.381 169.725 600.194 168.804 605.109 168.804C616.577 168.804 625.639 172.337 632.295 179.402C638.951 186.365 642.279 196.656 642.279 210.275C642.279 211.606 642.228 213.091 642.125 214.729C642.023 216.265 641.92 217.647 641.818 218.876H589.903C590.415 223.586 592.616 227.324 596.507 230.089C600.398 232.853 605.621 234.236 612.174 234.236C616.372 234.236 620.468 233.877 624.462 233.161C628.558 232.341 631.886 231.369 634.445 230.242L637.517 248.827C636.289 249.442 634.65 250.056 632.602 250.67C630.554 251.285 628.25 251.797 625.691 252.206C623.233 252.718 620.571 253.128 617.704 253.435C614.836 253.742 611.969 253.896 609.102 253.896C601.832 253.896 595.483 252.821 590.056 250.67C584.732 248.52 580.277 245.602 576.693 241.915C573.212 238.127 570.601 233.673 568.86 228.553C567.222 223.433 566.403 217.903 566.403 211.964ZM620.161 203.209C620.059 201.264 619.7 199.369 619.086 197.526C618.574 195.683 617.704 194.045 616.475 192.611C615.348 191.178 613.864 190 612.021 189.079C610.28 188.157 608.078 187.696 605.416 187.696C602.856 187.696 600.654 188.157 598.811 189.079C596.968 189.898 595.432 191.024 594.203 192.458C592.975 193.891 592.002 195.581 591.285 197.526C590.671 199.369 590.21 201.264 589.903 203.209H620.161ZM659.172 150.833L682.058 147.147V170.954H709.551V190H682.058V218.415C682.058 223.228 682.877 227.068 684.515 229.935C686.256 232.802 689.686 234.236 694.806 234.236C697.264 234.236 699.772 234.031 702.332 233.621C704.995 233.109 707.401 232.444 709.551 231.625L712.777 249.442C710.012 250.568 706.94 251.541 703.561 252.36C700.182 253.179 696.035 253.589 691.12 253.589C684.874 253.589 679.703 252.77 675.607 251.131C671.511 249.39 668.234 247.035 665.777 244.066C663.319 240.994 661.578 237.308 660.554 233.007C659.633 228.706 659.172 223.945 659.172 218.723V150.833Z" fill="#F8FAFC"/>
</svg>
