<svg width="343" height="234" viewBox="0 0 343 234" fill="none" xmlns="http://www.w3.org/2000/svg">
<g clip-path="url(#clip0_48_2)">
<mask id="mask0_48_2" style="mask-type:luminance" maskUnits="userSpaceOnUse" x="97" y="66" width="55" height="18">
<path d="M141.23 73.24C140.35 73.24 139.5 73.3 138.68 73.39C137.77 70.32 133.5 68 128.36 68C127.97 68 127.59 68.01 127.22 68.04C124.97 66.94 122.08 66.28 118.91 66.28C111.79 66.28 106.02 69.62 106.02 73.75C106.02 74.23 106.11 74.71 106.26 75.16C105.9 75.14 105.53 75.12 105.15 75.12C100.68 75.12 97.05 76.91 97.05 79.11C97.05 81.31 100.68 83.1 105.15 83.1H141.25C147.02 83.1 151.7 80.89 151.7 78.17C151.7 75.45 147.02 73.24 141.25 73.24H141.23Z" fill="white"/>
</mask>
<g mask="url(#mask0_48_2)">
<path opacity="0.7" d="M141.23 73.24C140.35 73.24 139.5 73.3 138.68 73.39C137.77 70.32 133.5 68 128.36 68C127.97 68 127.59 68.01 127.22 68.04C124.97 66.94 122.08 66.28 118.91 66.28C111.79 66.28 106.02 69.62 106.02 73.75C106.02 74.23 106.11 74.71 106.26 75.16C105.9 75.14 105.53 75.12 105.15 75.12C100.68 75.12 97.05 76.91 97.05 79.11C97.05 81.31 100.68 83.1 105.15 83.1H141.25C147.02 83.1 151.7 80.89 151.7 78.17C151.7 75.45 147.02 73.24 141.25 73.24H141.23Z" stroke="#9A9A9A" stroke-miterlimit="10"/>
</g>
<path d="M141.23 73.24C140.35 73.24 139.5 73.3 138.68 73.39C137.77 70.32 133.5 68 128.36 68C127.97 68 127.59 68.01 127.22 68.04C124.97 66.94 122.08 66.28 118.91 66.28C111.79 66.28 106.02 69.62 106.02 73.75C106.02 74.23 106.11 74.71 106.26 75.16C105.9 75.14 105.53 75.12 105.15 75.12C100.68 75.12 97.05 76.91 97.05 79.11C97.05 81.31 100.68 83.1 105.15 83.1H141.25C147.02 83.1 151.7 80.89 151.7 78.17C151.7 75.45 147.02 73.24 141.25 73.24H141.23Z" stroke="#9A9A9A" stroke-miterlimit="10"/>
<mask id="mask1_48_2" style="mask-type:luminance" maskUnits="userSpaceOnUse" x="124" y="56" width="84" height="28">
<path d="M194.09 70.2799C191.8 70.2799 189.65 70.5499 187.76 71.0199C188.15 70.2999 188.37 69.5299 188.37 68.7199C188.37 64.9299 183.74 61.8599 178.04 61.8599C175.15 61.8599 172.54 62.6499 170.66 63.9199C168.59 59.8599 162.24 56.8999 154.73 56.8999C145.54 56.8999 138.08 61.3299 138.08 66.7899C138.08 68.1399 138.53 69.4199 139.36 70.5899C138.25 70.3899 137.07 70.2799 135.83 70.2799C129.5 70.2799 124.36 73.1499 124.36 76.6799C124.36 80.2099 129.49 83.0799 135.83 83.0799H194.1C201.59 83.0799 207.67 80.2099 207.67 76.6799C207.67 73.1499 201.59 70.2799 194.1 70.2799H194.09Z" fill="white"/>
</mask>
<g mask="url(#mask1_48_2)">
<path opacity="0.5" d="M194.09 70.2799C191.8 70.2799 189.65 70.5499 187.76 71.0199C188.15 70.2999 188.37 69.5299 188.37 68.7199C188.37 64.9299 183.74 61.8599 178.04 61.8599C175.15 61.8599 172.54 62.6499 170.66 63.9199C168.59 59.8599 162.24 56.8999 154.73 56.8999C145.54 56.8999 138.08 61.3299 138.08 66.7899C138.08 68.1399 138.53 69.4199 139.36 70.5899C138.25 70.3899 137.07 70.2799 135.83 70.2799C129.5 70.2799 124.36 73.1499 124.36 76.6799C124.36 80.2099 129.49 83.0799 135.83 83.0799H194.1C201.59 83.0799 207.67 80.2099 207.67 76.6799C207.67 73.1499 201.59 70.2799 194.1 70.2799H194.09Z" stroke="#9A9A9A" stroke-miterlimit="10"/>
</g>
<path d="M194.09 70.2799C191.8 70.2799 189.65 70.5499 187.76 71.0199C188.15 70.2999 188.37 69.5299 188.37 68.7199C188.37 64.9299 183.74 61.8599 178.04 61.8599C175.15 61.8599 172.54 62.6499 170.66 63.9199C168.59 59.8599 162.24 56.8999 154.73 56.8999C145.54 56.8999 138.08 61.3299 138.08 66.7899C138.08 68.1399 138.53 69.4199 139.36 70.5899C138.25 70.3899 137.07 70.2799 135.83 70.2799C129.5 70.2799 124.36 73.1499 124.36 76.6799C124.36 80.2099 129.49 83.0799 135.83 83.0799H194.1C201.59 83.0799 207.67 80.2099 207.67 76.6799C207.67 73.1499 201.59 70.2799 194.1 70.2799H194.09Z" stroke="#9A9A9A" stroke-miterlimit="10"/>
<mask id="mask2_48_2" style="mask-type:luminance" maskUnits="userSpaceOnUse" x="172" y="76" width="46" height="15">
<path d="M209.96 83.26C208.73 83.26 207.57 83.41 206.55 83.66C206.76 83.27 206.88 82.86 206.88 82.42C206.88 80.38 204.39 78.72 201.31 78.72C199.75 78.72 198.34 79.15 197.33 79.83C196.21 77.64 192.79 76.04 188.74 76.04C183.78 76.04 179.76 78.43 179.76 81.37C179.76 82.1 180.01 82.79 180.45 83.42C179.85 83.31 179.21 83.25 178.55 83.25C175.14 83.25 172.37 84.8 172.37 86.7C172.37 88.6 175.14 90.15 178.55 90.15H209.97C214.01 90.15 217.29 88.6 217.29 86.7C217.29 84.8 214.01 83.25 209.97 83.25L209.96 83.26Z" fill="white"/>
</mask>
<g mask="url(#mask2_48_2)">
<path opacity="0.2" d="M209.96 83.26C208.73 83.26 207.57 83.41 206.55 83.66C206.76 83.27 206.88 82.86 206.88 82.42C206.88 80.38 204.39 78.72 201.31 78.72C199.75 78.72 198.34 79.15 197.33 79.83C196.21 77.64 192.79 76.04 188.74 76.04C183.78 76.04 179.76 78.43 179.76 81.37C179.76 82.1 180.01 82.79 180.45 83.42C179.85 83.31 179.21 83.25 178.55 83.25C175.14 83.25 172.37 84.8 172.37 86.7C172.37 88.6 175.14 90.15 178.55 90.15H209.97C214.01 90.15 217.29 88.6 217.29 86.7C217.29 84.8 214.01 83.25 209.97 83.25L209.96 83.26Z" stroke="#9A9A9A" stroke-miterlimit="10"/>
</g>
<path d="M209.96 83.26C208.73 83.26 207.57 83.41 206.55 83.66C206.76 83.27 206.88 82.86 206.88 82.42C206.88 80.38 204.39 78.72 201.31 78.72C199.75 78.72 198.34 79.15 197.33 79.83C196.21 77.64 192.79 76.04 188.74 76.04C183.78 76.04 179.76 78.43 179.76 81.37C179.76 82.1 180.01 82.79 180.45 83.42C179.85 83.31 179.21 83.25 178.55 83.25C175.14 83.25 172.37 84.8 172.37 86.7C172.37 88.6 175.14 90.15 178.55 90.15H209.97C214.01 90.15 217.29 88.6 217.29 86.7C217.29 84.8 214.01 83.25 209.97 83.25L209.96 83.26Z" stroke="#9A9A9A" stroke-miterlimit="10"/>
<path d="M252.8 116.92C253.95 115.39 252.31 111.19 252.32 109.28C252.35 104.04 251.4 102.15 250.97 99.8C250.5 97.22 249.62 96.37 248.65 96.13C248.23 96.02 247.84 96.4 247.91 96.83C247.91 96.83 248.45 99.34 248.46 100.19C248.46 101.78 248.03 104.98 247.49 106.48C246.88 108.16 245.12 113.12 243.74 113.56C235.82 116.1 209.9 117.61 207.83 117.73C207.74 117.73 207.65 117.75 207.57 117.76L179.47 123.15C179.47 123.15 173.43 125.72 171.3 126.16C168.84 126.66 161.27 126.65 161.27 126.65L164.1 146.9C178.24 147.83 180.86 141.96 185.26 138.32C189.11 135.13 208.33 127.49 208.33 127.49C234.69 126.53 244.89 119.08 245.31 118.88C247.06 118.05 251.65 118.47 252.82 116.93L252.8 116.92Z" stroke="#9A9A9A" stroke-linecap="round" stroke-linejoin="round"/>
<mask id="mask3_48_2" style="mask-type:luminance" maskUnits="userSpaceOnUse" x="161" y="119" width="41" height="28">
<path d="M201.92 130.11C200.39 124.11 198.53 121.18 197.13 119.75L179.46 123.14C179.46 123.14 173.42 125.71 171.29 126.15C168.83 126.65 161.26 126.64 161.26 126.64L164.09 146.89C178.23 147.82 180.85 141.95 185.25 138.31C187.64 136.33 195.96 132.63 201.92 130.11Z" fill="white"/>
</mask>
<g mask="url(#mask3_48_2)">
<path opacity="0.3" d="M201.92 130.11C200.39 124.11 198.53 121.18 197.13 119.75L179.46 123.14C179.46 123.14 173.42 125.71 171.29 126.15C168.83 126.65 161.26 126.64 161.26 126.64L164.09 146.89C178.23 147.82 180.85 141.95 185.25 138.31C187.64 136.33 195.96 132.63 201.92 130.11Z" stroke="#9A9A9A" stroke-miterlimit="10"/>
</g>
<path d="M201.92 130.11C200.39 124.11 198.53 121.18 197.13 119.75L179.46 123.14C179.46 123.14 173.42 125.71 171.29 126.15C168.83 126.65 161.26 126.64 161.26 126.64L164.09 146.89C178.23 147.82 180.85 141.95 185.25 138.31C187.64 136.33 195.96 132.63 201.92 130.11Z" stroke="#9A9A9A" stroke-linecap="round" stroke-linejoin="round"/>
<mask id="mask4_48_2" style="mask-type:luminance" maskUnits="userSpaceOnUse" x="103" y="92" width="26" height="32">
<path d="M113 123.12C113 123.12 115.8 118.2 117.66 112.73C118.91 109.06 118.73 105.14 120.76 102.29C120.76 102.29 119.26 104.75 113.05 107.93C108.12 110.45 105.42 112.35 105.42 112.35C105.83 110.4 105.45 109.02 104.09 108.38C104.24 107.67 104.13 107.01 103.45 106.47C103.45 106.47 123.37 89.91 126.9 92.8C131.02 96.19 124.3 121.91 124.3 121.91L113 123.12Z" fill="white"/>
</mask>
<g mask="url(#mask4_48_2)">
<path opacity="0.2" d="M112.07 120.83C112.07 120.83 120.59 115.33 127.67 115.94C134.75 116.55 123.26 125.64 123.26 125.64L114.29 126.7L112.07 120.83Z" stroke="#9A9A9A" stroke-miterlimit="10"/>
</g>
<path d="M113 123.12C113 123.12 115.8 118.2 117.66 112.73C118.91 109.06 118.73 105.14 120.76 102.29C120.76 102.29 119.26 104.75 113.05 107.93C108.12 110.45 105.42 112.35 105.42 112.35C105.83 110.4 105.45 109.02 104.09 108.38C104.24 107.67 104.13 107.01 103.45 106.47C103.45 106.47 123.37 89.91 126.9 92.8C131.02 96.19 124.3 121.91 124.3 121.91L113 123.12Z" stroke="#9A9A9A" stroke-linecap="round" stroke-linejoin="round"/>
<mask id="mask5_48_2" style="mask-type:luminance" maskUnits="userSpaceOnUse" x="89" y="100" width="154" height="48">
<path d="M207.36 100.04C199.68 100.92 171.28 128.32 171.28 128.32C151.26 122.71 149.85 124.57 142.71 123.33C136.23 122.21 131.12 118.22 116.53 120.67C113.51 121.18 111.27 121.89 109.62 122.69L108.95 122.42C108.95 122.42 112.66 117.44 112.8 116.85C112.94 116.26 105.04 111.86 105.04 111.86C105.04 111.86 105.38 109.7 104.92 109.45C104.06 108.96 103.09 108.99 101.04 109.13C98.9901 109.26 95.0401 107.84 95.0401 107.84C95.0401 107.84 92.0301 111.68 91.8601 112.11C91.6901 112.54 89.5301 115.1 89.3501 115.41C89.1701 115.72 93.1901 125.32 98.1301 125.49C101.91 125.62 104.66 127.07 105.13 128.18C105.59 129.28 105.51 130.2 105.51 130.2C105.51 130.2 154.6 155.28 175.19 144.51C179.72 142.14 183.21 136.3 187.01 133.11C200.47 121.84 208.88 110 208.88 110C215.92 116.52 238.53 125.65 238.53 125.65L242.1 120.04C242.1 120.04 215.03 99.16 207.36 100.04Z" fill="white"/>
</mask>
<g mask="url(#mask5_48_2)">
<path opacity="0.2" d="M97.96 126.95C97.96 126.95 103.02 126.89 105.79 125.22C106.88 124.56 106.73 126 108.06 127.4C109.38 128.79 112.05 125.42 119.42 130.55C126.79 135.68 132.59 135.95 135.76 133.82C140.1 130.91 145.41 144.94 167.08 142.06C182.97 139.95 187.02 133.11 187.02 133.11L196.85 138.1L195.32 144.75L168.34 168.04L113.69 161.75L96.52 148.26L94.79 135.78L97.97 126.95H97.96Z" stroke="#9A9A9A" stroke-miterlimit="10"/>
</g>
<path d="M207.36 100.04C199.68 100.92 171.28 128.32 171.28 128.32C151.26 122.71 149.85 124.57 142.71 123.33C136.23 122.21 131.12 118.22 116.53 120.67C113.51 121.18 111.27 121.89 109.62 122.69L108.95 122.42C108.95 122.42 112.66 117.44 112.8 116.85C112.94 116.26 105.04 111.86 105.04 111.86C105.04 111.86 105.38 109.7 104.92 109.45C104.06 108.96 103.09 108.99 101.04 109.13C98.9901 109.26 95.0401 107.84 95.0401 107.84C95.0401 107.84 92.0301 111.68 91.8601 112.11C91.6901 112.54 89.5301 115.1 89.3501 115.41C89.1701 115.72 93.1901 125.32 98.1301 125.49C101.91 125.62 104.66 127.07 105.13 128.18C105.59 129.28 105.51 130.2 105.51 130.2C105.51 130.2 154.6 155.28 175.19 144.51C179.72 142.14 183.21 136.3 187.01 133.11C200.47 121.84 208.88 110 208.88 110C215.92 116.52 238.53 125.65 238.53 125.65L242.1 120.04C242.1 120.04 215.03 99.16 207.36 100.04Z" stroke="#9A9A9A" stroke-linecap="round" stroke-linejoin="round"/>
<path d="M98.35 110.48C98.35 110.48 97.52 111.21 98.29 112.77" stroke="#9A9A9A" stroke-linecap="round" stroke-linejoin="round"/>
<path d="M108.06 115.49C108.06 115.49 107.7 117.31 105.79 117.97" stroke="#9A9A9A" stroke-linecap="round" stroke-linejoin="round"/>
<path d="M102.44 126.45C102.44 126.45 98.35 119.76 98.02 118.92C97.69 118.08 99.16 119.18 99.59 118.34C100.02 117.5 97.44 117.2 96.04 115.91C94.64 114.62 95.67 113.99 94.99 112.61C94.99 112.61 100.9 101.1 92.5 101.01C85.18 100.93 89.13 109.25 87.9 110.86C86.68 112.48 80 118.43 87.63 122.86C94.24 126.69 102.42 126.44 102.42 126.44L102.44 126.45Z" stroke="#9A9A9A" stroke-linecap="round" stroke-linejoin="round"/>
<path d="M98.73 118.68C98.73 118.68 95.37 119.34 96.93 121.27C98.74 123.51 101.43 122.73 101.6 121.39" stroke="#9A9A9A" stroke-linecap="round" stroke-linejoin="round"/>
<path d="M92.3099 115.92C92.4099 116.31 92.5799 116.65 92.8399 116.91" stroke="#9A9A9A" stroke-width="0.75" stroke-linecap="round" stroke-linejoin="round"/>
<path d="M91.5399 102.53C91.9099 102.44 92.3199 102.47 92.7499 102.7C95.2699 104.08 92.4299 110.31 92.1999 114.25" stroke="#9A9A9A" stroke-width="0.75" stroke-linecap="round" stroke-linejoin="round"/>
<path d="M89.58 104.19C89.58 104.19 89.84 103.75 90.27 103.31" stroke="#9A9A9A" stroke-width="0.75" stroke-linecap="round" stroke-linejoin="round"/>
<path d="M91.38 122.18C91.8 122.34 92.26 122.48 92.76 122.61" stroke="#9A9A9A" stroke-width="0.75" stroke-linecap="round" stroke-linejoin="round"/>
<path d="M92.0301 106.08C91.2501 109.4 83.6601 118.04 90.2401 121.66" stroke="#9A9A9A" stroke-width="0.75" stroke-linecap="round" stroke-linejoin="round"/>
<path d="M90.1901 105.63C90.1901 105.63 91.3001 104.17 91.9601 105.09" stroke="#9A9A9A" stroke-width="0.75" stroke-linecap="round" stroke-linejoin="round"/>
<path d="M100.29 105.7C100.29 105.7 98.27 114.19 99.12 114.65L98.67 117.9L99.58 117.96L100.47 114.83C100.47 114.83 103.13 114.83 103.44 112.82C103.74 110.82 101.43 109.81 101.49 109.09C101.56 108.37 104 109.35 104.13 107.77C104.27 106.09 100.3 105.69 100.3 105.69L100.29 105.7Z" stroke="#9A9A9A" stroke-width="0.5" stroke-linecap="round" stroke-linejoin="round"/>
<mask id="mask6_48_2" style="mask-type:luminance" maskUnits="userSpaceOnUse" x="161" y="111" width="40" height="37">
<path d="M190.07 111.43C180.64 119.29 171.27 128.33 171.27 128.33C168.02 127.42 165.27 126.71 162.9 126.15C163.06 128.92 163.57 140.65 161.25 147.19C166.55 147.28 171.37 146.51 175.2 144.51C179.73 142.14 183.22 136.3 187.02 133.11C192.2 128.78 196.62 124.36 200.11 120.57C198.77 118.12 195.63 113.52 190.08 111.43H190.07Z" fill="white"/>
</mask>
<g mask="url(#mask6_48_2)">
<path opacity="0.5" d="M171.91 137.83C171.91 137.83 170.95 134.23 168.31 135.31C165.67 136.39 165.55 139.05 167.95 140.9C167.95 140.9 162.87 141.9 165.16 145.02C167.71 148.5 170.19 143.94 170.19 143.94C170.19 143.94 171.67 147.78 174.67 145.74C177.67 143.7 174.19 140.9 174.19 140.9C174.19 140.9 178.15 139.75 176.59 137.11C175.03 134.47 171.91 137.83 171.91 137.83Z" stroke="#9A9A9A" stroke-miterlimit="10"/>
<path opacity="0.5" d="M177.79 124.32C177.79 124.32 179.3 120.92 176.57 120.1C173.84 119.28 172.07 121.28 172.78 124.23C172.78 124.23 168.19 121.82 168.02 125.69C167.83 130 172.61 128.01 172.61 128.01C172.61 128.01 171.35 131.92 174.97 132.22C178.58 132.51 177.64 128.15 177.64 128.15C177.64 128.15 181.44 129.74 181.89 126.7C182.33 123.67 177.8 124.33 177.8 124.33L177.79 124.32Z" stroke="#9A9A9A" stroke-miterlimit="10"/>
<path opacity="0.5" d="M200.05 127.16C199.66 124.12 195.47 125.97 195.47 125.97C195.47 125.97 196.01 122.29 193.16 122.24C190.31 122.19 189.15 124.59 190.62 127.23C190.62 127.23 185.55 126.14 186.42 129.91C187.39 134.11 191.47 130.91 191.47 130.91C191.47 130.91 191.31 135.02 194.87 134.33C198.43 133.64 196.34 129.69 196.34 129.69C196.34 129.69 200.43 130.19 200.04 127.16H200.05Z" stroke="#9A9A9A" stroke-miterlimit="10"/>
<path opacity="0.5" d="M190.81 115.47C190.81 115.47 192.32 119.3 195.3 117.23C198.28 115.17 194.78 112.39 194.78 112.39C194.78 112.39 198.73 111.21 197.15 108.58C195.57 105.95 192.48 109.33 192.48 109.33C192.48 109.33 191.49 105.74 188.86 106.84C186.23 107.94 186.13 110.6 188.54 112.43C188.54 112.43 183.46 113.47 185.78 116.57C188.36 120.03 190.8 115.45 190.8 115.45L190.81 115.47Z" stroke="#9A9A9A" stroke-miterlimit="10"/>
</g>
<path d="M190.07 111.43C180.64 119.29 171.27 128.33 171.27 128.33C168.02 127.42 165.27 126.71 162.9 126.15C163.06 128.92 163.57 140.65 161.25 147.19C166.55 147.28 171.37 146.51 175.2 144.51C179.73 142.14 183.22 136.3 187.02 133.11C192.2 128.78 196.62 124.36 200.11 120.57C198.77 118.12 195.63 113.52 190.08 111.43H190.07Z" stroke="#9A9A9A" stroke-linecap="round" stroke-linejoin="round"/>
<mask id="mask7_48_2" style="mask-type:luminance" maskUnits="userSpaceOnUse" x="161" y="111" width="40" height="37">
<path d="M190.07 111.43C180.64 119.29 171.27 128.33 171.27 128.33C168.02 127.42 165.27 126.71 162.9 126.15C163.06 128.92 163.57 140.65 161.25 147.19C166.55 147.28 171.37 146.51 175.2 144.51C179.73 142.14 183.22 136.3 187.02 133.11C192.2 128.78 196.62 124.36 200.11 120.57C198.77 118.12 195.63 113.52 190.08 111.43H190.07Z" fill="white"/>
</mask>
<g mask="url(#mask7_48_2)">
<path opacity="0.2" d="M97.96 126.95C97.96 126.95 104.18 126.8 106.56 124.61C108.94 122.42 106.73 126.01 108.06 127.4C109.38 128.79 112.05 125.42 119.42 130.55C126.79 135.68 132.59 135.95 135.76 133.82C140.1 130.91 145.41 144.94 167.08 142.06C182.97 139.95 187.02 133.11 187.02 133.11L196.85 138.1L195.32 144.75L168.34 168.04L113.69 161.75L96.52 148.26L94.79 135.78L97.97 126.95H97.96Z" stroke="#9A9A9A" stroke-miterlimit="10"/>
</g>
<path d="M190.07 111.43C180.64 119.29 171.27 128.33 171.27 128.33C168.02 127.42 165.27 126.71 162.9 126.15C163.06 128.92 163.57 140.65 161.25 147.19C166.55 147.28 171.37 146.51 175.2 144.51C179.73 142.14 183.22 136.3 187.02 133.11C192.2 128.78 196.62 124.36 200.11 120.57C198.77 118.12 195.63 113.52 190.08 111.43H190.07Z" stroke="#9A9A9A" stroke-miterlimit="10"/>
<path d="M164.54 125.74C164.54 125.74 166.16 120.96 163.49 121.16C161.34 121.32 162.97 125.11 163.67 126.57C163.83 126.9 164.21 127.06 164.56 126.95C166.31 126.39 171.19 124.67 169.73 123.18C167.96 121.37 164.53 125.74 164.53 125.74H164.54ZM163.62 121.99C164.6 121.78 163.8 125.35 163.8 125.35C163.8 125.35 162.65 122.2 163.62 121.99ZM165.57 125.82C165.57 125.82 167.97 122.79 168.77 123.54C169.57 124.29 165.57 125.82 165.57 125.82Z" stroke="#9A9A9A" stroke-miterlimit="10"/>
<path d="M103.96 131.54C103.96 131.54 108.46 127.09 113.67 129.31C114.71 129.75 116.05 131.09 117.56 131.84C123.6 134.83 132.3 139.12 134.89 142.86L103.96 131.53V131.54Z" stroke="#9A9A9A" stroke-linecap="round" stroke-linejoin="round"/>
<mask id="mask8_48_2" style="mask-type:luminance" maskUnits="userSpaceOnUse" x="76" y="104" width="188" height="63">
<path d="M76.92 113.62C76.92 113.62 117.93 141.78 170.39 140.98C199.69 140.53 232.57 126.6 263.86 104.43C263.86 104.43 174.95 238.03 76.91 113.62H76.92Z" fill="white"/>
</mask>
<g mask="url(#mask8_48_2)">
<path opacity="0.2" d="M76.92 113.62C76.92 113.62 105.56 156.17 162.4 156.17C232.54 156.17 263.87 104.43 263.87 104.43L287.21 133.37L294.4 182.43L229.3 230.27L149.45 233.15L90.18 225.24L76.92 204.02C76.92 204.02 50.54 237.11 56.3 173.45C62.05 109.79 48.75 122.41 48.75 122.41L62.06 109.79L76.93 113.64L76.92 113.62Z" stroke="#9A9A9A" stroke-miterlimit="10"/>
</g>
<path d="M76.92 113.62C76.92 113.62 117.93 141.78 170.39 140.98C199.69 140.53 232.57 126.6 263.86 104.43C263.86 104.43 174.95 238.03 76.91 113.62H76.92Z" stroke="#9A9A9A" stroke-linecap="round" stroke-linejoin="round"/>
<path d="M77.15 169.59C71.55 119.15 84.07 44.12 84.07 44.12L68.64 41.46C51.81 103.27 48.83 142.06 48.46 158.68C56.32 163.92 66.17 167.75 77.15 169.59Z" stroke="#9A9A9A" stroke-linecap="round" stroke-linejoin="round"/>
<path d="M75.7099 142.29C74.6199 142.15 73.4599 142.04 72.2599 141.95C65.6499 141.49 60.2299 142.14 60.1399 143.4C60.0499 144.66 65.3399 146.04 71.9399 146.5C73.2699 146.59 74.5599 146.64 75.7599 146.64C75.7299 145.2 75.7199 143.74 75.7099 142.29Z" stroke="#9A9A9A" stroke-linecap="round" stroke-linejoin="round"/>
<path d="M63.9699 113.5C64.0499 112.32 59.4099 111.03 53.3899 110.5C53.1399 112.03 52.9099 113.53 52.6799 115C58.8999 115.35 63.8899 114.71 63.9699 113.5Z" stroke="#9A9A9A" stroke-linecap="round" stroke-linejoin="round"/>
<path d="M62.6199 74.65C67.8999 75.44 72.28 75.37 72.41 74.5C72.54 73.63 68.37 72.29 63.09 71.5C62.42 71.4 61.7699 71.31 61.1399 71.24C60.9099 72.26 60.68 73.27 60.45 74.28C61.15 74.41 61.8699 74.54 62.6199 74.65Z" stroke="#9A9A9A" stroke-linecap="round" stroke-linejoin="round"/>
<path d="M66.24 101.43C66.16 102.62 70.95 103.94 77.1 104.45C77.21 102.93 77.32 101.42 77.44 99.9199C71.25 99.5799 66.31 100.22 66.23 101.42L66.24 101.43Z" stroke="#9A9A9A" stroke-linecap="round" stroke-linejoin="round"/>
<mask id="mask9_48_2" style="mask-type:luminance" maskUnits="userSpaceOnUse" x="1" y="17" width="70" height="34">
<path d="M22.51 19.6301C22.51 19.6301 9.52996 23.2501 1.07996 29.2101C1.07996 29.2101 6.98995 31.2701 37.6 24.6501C37.6 24.6501 18.64 33.9801 19.52 36.8101C20.4 39.6401 46.93 30.1001 46.93 30.1001C46.93 30.1001 32.51 38.9901 34.04 41.4701C35.57 43.9601 54.98 34.7601 54.98 34.7601C54.98 34.7601 42.77 43.8901 44.51 46.2801C46.25 48.6601 62.45 39.3501 62.45 39.3501C62.45 39.3501 53.19 48.7501 54.3 50.4401C55.41 52.1301 70.01 42.0101 70.01 42.0101C70.01 42.0101 65.87 28.6401 52.21 20.8301C52.21 20.8301 38.88 13.6701 22.5 19.6201L22.51 19.6301Z" fill="white"/>
</mask>
<g mask="url(#mask9_48_2)">
<path opacity="0.3" d="M22.51 19.6301C22.51 19.6301 9.52996 23.2501 1.07996 29.2101C1.07996 29.2101 6.98995 31.2701 37.6 24.6501C37.6 24.6501 18.64 33.9801 19.52 36.8101C20.4 39.6401 46.93 30.1001 46.93 30.1001C46.93 30.1001 32.51 38.9901 34.04 41.4701C35.57 43.9601 54.98 34.7601 54.98 34.7601C54.98 34.7601 42.77 43.8901 44.51 46.2801C46.25 48.6601 62.45 39.3501 62.45 39.3501C62.45 39.3501 53.19 48.7501 54.3 50.4401C55.41 52.1301 70.01 42.0101 70.01 42.0101C70.01 42.0101 65.87 28.6401 52.21 20.8301C52.21 20.8301 38.88 13.6701 22.5 19.6201L22.51 19.6301Z" stroke="#9A9A9A" stroke-miterlimit="10"/>
</g>
<path d="M22.51 19.6301C22.51 19.6301 9.52996 23.2501 1.07996 29.2101C1.07996 29.2101 6.98995 31.2701 37.6 24.6501C37.6 24.6501 18.64 33.9801 19.52 36.8101C20.4 39.6401 46.93 30.1001 46.93 30.1001C46.93 30.1001 32.51 38.9901 34.04 41.4701C35.57 43.9601 54.98 34.7601 54.98 34.7601C54.98 34.7601 42.77 43.8901 44.51 46.2801C46.25 48.6601 62.45 39.3501 62.45 39.3501C62.45 39.3501 53.19 48.7501 54.3 50.4401C55.41 52.1301 70.01 42.0101 70.01 42.0101C70.01 42.0101 65.87 28.6401 52.21 20.8301C52.21 20.8301 38.88 13.6701 22.5 19.6201L22.51 19.6301Z" stroke="#9A9A9A" stroke-linecap="round" stroke-linejoin="round"/>
<path d="M72.39 46.03C71.48 46.68 70.2 46.22 69.88 45.16C67.43 37.08 53.15 0.719967 1.07996 29.21C1.07996 29.21 22.66 13.25 45.23 17.51C65.12 21.27 71.75 39.76 73.05 44.1C73.25 44.79 73.04 45.54 72.47 45.98C72.45 46 72.42 46.02 72.4 46.03H72.39Z" stroke="#9A9A9A" stroke-linecap="round" stroke-linejoin="round"/>
<mask id="mask10_48_2" style="mask-type:luminance" maskUnits="userSpaceOnUse" x="18" y="0" width="58" height="45">
<path d="M41.5099 1.98984C41.5099 1.98984 28.2299 -0.290162 18.0399 1.47984C18.0399 1.47984 22.4999 5.87984 52.9999 12.9898C52.9999 12.9898 31.8699 13.3098 31.4599 16.2398C31.0499 19.1698 59.0999 21.9098 59.0999 21.9098C59.0999 21.9098 42.2599 23.7698 42.5799 26.6698C42.8999 29.5798 64.3799 29.5798 64.3799 29.5798C64.3799 29.5798 49.4399 32.6098 49.9899 35.5098C50.5399 38.4098 69.1699 36.9298 69.1699 36.9298C69.1699 36.9298 56.7799 41.4598 57.0599 43.4598C57.3299 45.4598 74.8599 42.5598 74.8599 42.5598C74.8599 42.5598 76.8399 28.6998 67.8399 15.7998C67.8399 15.7998 58.8499 3.61984 41.5099 1.98984Z" fill="white"/>
</mask>
<g mask="url(#mask10_48_2)">
<path opacity="0.3" d="M41.5099 1.98984C41.5099 1.98984 28.2299 -0.290162 18.0399 1.47984C18.0399 1.47984 22.4999 5.87984 52.9999 12.9898C52.9999 12.9898 31.8699 13.3098 31.4599 16.2398C31.0499 19.1698 59.0999 21.9098 59.0999 21.9098C59.0999 21.9098 42.2599 23.7698 42.5799 26.6698C42.8999 29.5798 64.3799 29.5798 64.3799 29.5798C64.3799 29.5798 49.4399 32.6098 49.9899 35.5098C50.5399 38.4098 69.1699 36.9298 69.1699 36.9298C69.1699 36.9298 56.7799 41.4598 57.0599 43.4598C57.3299 45.4598 74.8599 42.5598 74.8599 42.5598C74.8599 42.5598 76.8399 28.6998 67.8399 15.7998C67.8399 15.7998 58.8499 3.61984 41.5099 1.98984Z" stroke="#9A9A9A" stroke-miterlimit="10"/>
</g>
<path d="M41.5099 1.98984C41.5099 1.98984 28.2299 -0.290162 18.0399 1.47984C18.0399 1.47984 22.4999 5.87984 52.9999 12.9898C52.9999 12.9898 31.8699 13.3098 31.4599 16.2398C31.0499 19.1698 59.0999 21.9098 59.0999 21.9098C59.0999 21.9098 42.2599 23.7698 42.5799 26.6698C42.8999 29.5798 64.3799 29.5798 64.3799 29.5798C64.3799 29.5798 49.4399 32.6098 49.9899 35.5098C50.5399 38.4098 69.1699 36.9298 69.1699 36.9298C69.1699 36.9298 56.7799 41.4598 57.0599 43.4598C57.3299 45.4598 74.8599 42.5598 74.8599 42.5598C74.8599 42.5598 76.8399 28.6998 67.8399 15.7998C67.8399 15.7998 58.8499 3.61984 41.5099 1.98984Z" stroke="#9A9A9A" stroke-linecap="round" stroke-linejoin="round"/>
<path d="M75.2799 47.2099C74.1799 47.3999 73.2199 46.4499 73.3799 45.3499C74.6199 36.9899 77.2799 -1.97006 18.0299 1.47994C18.0299 1.47994 44.3699 -3.71006 62.9299 9.80994C79.2899 21.7199 77.3699 41.2799 76.6799 45.7499C76.5699 46.4599 76.0499 47.0499 75.3499 47.1999C75.3199 47.1999 75.2899 47.2099 75.2599 47.2199L75.2799 47.2099Z" stroke="#9A9A9A" stroke-linecap="round" stroke-linejoin="round"/>
<mask id="mask11_48_2" style="mask-type:luminance" maskUnits="userSpaceOnUse" x="78" y="8" width="64" height="40">
<path d="M118.66 9.06992C118.66 9.06992 132.14 9.19992 141.84 12.7699C141.84 12.7699 136.67 16.2899 105.38 17.8299C105.38 17.8299 126.11 21.9299 125.99 24.8899C125.87 27.8499 97.7799 25.5099 97.7799 25.5099C97.7799 25.5099 114.01 30.3599 113.17 33.1599C112.33 35.9599 91.1999 32.1099 91.1999 32.1099C91.1999 32.1099 105.36 37.7699 104.3 40.5199C103.24 43.2699 85.1799 38.4799 85.1799 38.4799C85.1799 38.4799 96.5499 45.1599 95.9199 47.0799C95.2899 48.9999 78.5699 42.9999 78.5699 42.9999C78.5699 42.9999 79.0999 29.0099 90.2699 17.9299C90.2699 17.9299 101.29 7.55992 118.65 9.06992H118.66Z" fill="white"/>
</mask>
<g mask="url(#mask11_48_2)">
<path opacity="0.3" d="M118.66 9.06992C118.66 9.06992 132.14 9.19992 141.84 12.7699C141.84 12.7699 136.67 16.2899 105.38 17.8299C105.38 17.8299 126.11 21.9299 125.99 24.8899C125.87 27.8499 97.7799 25.5099 97.7799 25.5099C97.7799 25.5099 114.01 30.3599 113.17 33.1599C112.33 35.9599 91.1999 32.1099 91.1999 32.1099C91.1999 32.1099 105.36 37.7699 104.3 40.5199C103.24 43.2699 85.1799 38.4799 85.1799 38.4799C85.1799 38.4799 96.5499 45.1599 95.9199 47.0799C95.2899 48.9999 78.5699 42.9999 78.5699 42.9999C78.5699 42.9999 79.0999 29.0099 90.2699 17.9299C90.2699 17.9299 101.29 7.55992 118.65 9.06992H118.66Z" stroke="#9A9A9A" stroke-miterlimit="10"/>
</g>
<path d="M118.66 9.06992C118.66 9.06992 132.14 9.19992 141.84 12.7699C141.84 12.7699 136.67 16.2899 105.38 17.8299C105.38 17.8299 126.11 21.9299 125.99 24.8899C125.87 27.8499 97.7799 25.5099 97.7799 25.5099C97.7799 25.5099 114.01 30.3599 113.17 33.1599C112.33 35.9599 91.1999 32.1099 91.1999 32.1099C91.1999 32.1099 105.36 37.7699 104.3 40.5199C103.24 43.2699 85.1799 38.4799 85.1799 38.4799C85.1799 38.4799 96.5499 45.1599 95.9199 47.0799C95.2899 48.9999 78.5699 42.9999 78.5699 42.9999C78.5699 42.9999 79.0999 29.0099 90.2699 17.9299C90.2699 17.9299 101.29 7.55992 118.65 9.06992H118.66Z" stroke="#9A9A9A" stroke-linecap="round" stroke-linejoin="round"/>
<path d="M77.3299 47.4999C78.3799 47.8899 79.4899 47.1198 79.5299 46.0098C79.8099 37.5698 84.1799 -1.25015 141.85 12.7798C141.85 12.7798 116.87 2.94985 96.1799 12.9198C77.9499 21.6998 76.3299 41.2799 76.1999 45.8099C76.1799 46.5299 76.5799 47.1999 77.2499 47.4699C77.2799 47.4799 77.3099 47.4899 77.3299 47.4999Z" stroke="#9A9A9A" stroke-linecap="round" stroke-linejoin="round"/>
<mask id="mask12_48_2" style="mask-type:luminance" maskUnits="userSpaceOnUse" x="82" y="24" width="71" height="31">
<path d="M133.24 29.27C133.24 29.27 145.48 34.92 152.86 42.15C152.86 42.15 146.7 43.24 117.53 31.81C117.53 31.81 134.75 44.05 133.43 46.7C132.11 49.35 107.44 35.7 107.44 35.7C107.44 35.7 120.25 46.78 118.34 48.99C116.43 51.2 98.74 39.02 98.74 39.02C98.74 39.02 109.33 49.99 107.24 52.06C105.15 54.14 90.64 42.35 90.64 42.35C90.64 42.35 98.28 53.1 96.91 54.6C95.55 56.09 82.75 43.76 82.75 43.76C82.75 43.76 88.97 31.22 103.7 25.7C103.7 25.7 118.01 20.76 133.22 29.25L133.24 29.27Z" fill="white"/>
</mask>
<g mask="url(#mask12_48_2)">
<path opacity="0.3" d="M133.24 29.27C133.24 29.27 145.48 34.92 152.86 42.15C152.86 42.15 146.7 43.24 117.53 31.81C117.53 31.81 134.75 44.05 133.43 46.7C132.11 49.35 107.44 35.7 107.44 35.7C107.44 35.7 120.25 46.78 118.34 48.99C116.43 51.2 98.74 39.02 98.74 39.02C98.74 39.02 109.33 49.99 107.24 52.06C105.15 54.14 90.64 42.35 90.64 42.35C90.64 42.35 98.28 53.1 96.91 54.6C95.55 56.09 82.75 43.76 82.75 43.76C82.75 43.76 88.97 31.22 103.7 25.7C103.7 25.7 118.01 20.76 133.22 29.25L133.24 29.27Z" stroke="#9A9A9A" stroke-miterlimit="10"/>
</g>
<path d="M133.24 29.27C133.24 29.27 145.48 34.92 152.86 42.15C152.86 42.15 146.7 43.24 117.53 31.81C117.53 31.81 134.75 44.05 133.43 46.7C132.11 49.35 107.44 35.7 107.44 35.7C107.44 35.7 120.25 46.78 118.34 48.99C116.43 51.2 98.74 39.02 98.74 39.02C98.74 39.02 109.33 49.99 107.24 52.06C105.15 54.14 90.64 42.35 90.64 42.35C90.64 42.35 98.28 53.1 96.91 54.6C95.55 56.09 82.75 43.76 82.75 43.76C82.75 43.76 88.97 31.22 103.7 25.7C103.7 25.7 118.01 20.76 133.22 29.25L133.24 29.27Z" stroke="#9A9A9A" stroke-linecap="round" stroke-linejoin="round"/>
<path d="M79.78 47.3699C80.57 48.1499 81.91 47.9099 82.4 46.9099C86.11 39.3199 106.02 5.71987 152.86 42.1499C152.86 42.1499 134.11 22.9399 111.15 23.5499C90.92 24.0799 81.41 41.2799 79.44 45.3599C79.13 45.9999 79.22 46.7899 79.71 47.2999C79.73 47.3199 79.7499 47.3399 79.7699 47.3599L79.78 47.3699Z" stroke="#9A9A9A" stroke-linecap="round" stroke-linejoin="round"/>
<path d="M72.58 115.28C60.05 115.28 53.14 109.74 52.82 109.48C52.21 108.98 52.12 108.07 52.62 107.45C53.12 106.84 54.03 106.75 54.64 107.25C54.76 107.34 62.71 113.62 76.77 112.19C77.56 112.11 78.27 112.69 78.35 113.48C78.43 114.27 77.85 114.98 77.06 115.06C75.49 115.22 74 115.29 72.58 115.29V115.28Z" stroke="#9A9A9A" stroke-linecap="round" stroke-linejoin="round"/>
<path d="M264.37 187.7C277.02 184.19 287.43 178.49 294.08 171.46C293.41 152.91 289.76 113.9 273.38 53.71L257.48 56.45C257.48 56.45 270.71 135.75 264.37 187.7Z" stroke="#9A9A9A" stroke-linecap="round" stroke-linejoin="round"/>
<path d="M266.09 157.6C267.21 157.46 268.41 157.34 269.65 157.25C276.46 156.78 282.04 157.45 282.13 158.74C282.22 160.03 276.77 161.46 269.97 161.93C268.6 162.02 267.28 162.07 266.04 162.08C266.07 160.59 266.09 159.1 266.09 157.6Z" stroke="#9A9A9A" stroke-linecap="round" stroke-linejoin="round"/>
<path d="M278.18 127.93C278.1 126.72 282.88 125.39 289.09 124.84C289.35 126.42 289.59 127.96 289.82 129.47C283.41 129.83 278.27 129.17 278.19 127.93H278.18Z" stroke="#9A9A9A" stroke-linecap="round" stroke-linejoin="round"/>
<path d="M279.57 87.9099C274.13 88.7199 269.62 88.6499 269.49 87.7599C269.36 86.8699 273.65 85.4799 279.09 84.6699C279.78 84.5699 280.45 84.4799 281.1 84.3999C281.34 85.4499 281.58 86.4899 281.81 87.5299C281.09 87.6699 280.34 87.7899 279.57 87.9099Z" stroke="#9A9A9A" stroke-linecap="round" stroke-linejoin="round"/>
<path d="M275.85 115.5C275.93 116.73 271 118.08 264.66 118.62C264.55 117.05 264.43 115.5 264.31 113.96C270.68 113.61 275.77 114.27 275.86 115.51L275.85 115.5Z" stroke="#9A9A9A" stroke-linecap="round" stroke-linejoin="round"/>
<mask id="mask13_48_2" style="mask-type:luminance" maskUnits="userSpaceOnUse" x="271" y="28" width="71" height="35">
<path d="M320.11 30.91C320.11 30.91 333.26 34.57 341.81 40.61C341.81 40.61 335.83 42.7 304.82 35.99C304.82 35.99 324.02 45.44 323.13 48.31C322.24 51.18 295.37 41.52 295.37 41.52C295.37 41.52 309.97 50.52 308.42 53.04C306.87 55.56 287.21 46.25 287.21 46.25C287.21 46.25 299.57 55.5 297.81 57.92C296.05 60.33 279.64 50.9 279.64 50.9C279.64 50.9 289.01 60.42 287.89 62.13C286.77 63.84 271.98 53.59 271.98 53.59C271.98 53.59 276.17 40.05 290 32.14C290 32.14 303.5 24.89 320.09 30.92L320.11 30.91Z" fill="white"/>
</mask>
<g mask="url(#mask13_48_2)">
<path opacity="0.3" d="M320.11 30.91C320.11 30.91 333.26 34.57 341.81 40.61C341.81 40.61 335.83 42.7 304.82 35.99C304.82 35.99 324.02 45.44 323.13 48.31C322.24 51.18 295.37 41.52 295.37 41.52C295.37 41.52 309.97 50.52 308.42 53.04C306.87 55.56 287.21 46.25 287.21 46.25C287.21 46.25 299.57 55.5 297.81 57.92C296.05 60.33 279.64 50.9 279.64 50.9C279.64 50.9 289.01 60.42 287.89 62.13C286.77 63.84 271.98 53.59 271.98 53.59C271.98 53.59 276.17 40.05 290 32.14C290 32.14 303.5 24.89 320.09 30.92L320.11 30.91Z" stroke="#9A9A9A" stroke-miterlimit="10"/>
</g>
<path d="M320.11 30.91C320.11 30.91 333.26 34.57 341.81 40.61C341.81 40.61 335.83 42.7 304.82 35.99C304.82 35.99 324.02 45.44 323.13 48.31C322.24 51.18 295.37 41.52 295.37 41.52C295.37 41.52 309.97 50.52 308.42 53.04C306.87 55.56 287.21 46.25 287.21 46.25C287.21 46.25 299.57 55.5 297.81 57.92C296.05 60.33 279.64 50.9 279.64 50.9C279.64 50.9 289.01 60.42 287.89 62.13C286.77 63.84 271.98 53.59 271.98 53.59C271.98 53.59 276.17 40.05 290 32.14C290 32.14 303.5 24.89 320.09 30.92L320.11 30.91Z" stroke="#9A9A9A" stroke-linecap="round" stroke-linejoin="round"/>
<path d="M269.6 57.65C270.52 58.3 271.81 57.85 272.14 56.77C274.63 48.58 289.09 11.77 341.81 40.61C341.81 40.61 319.96 24.44 297.1 28.76C276.96 32.57 270.24 51.3 268.93 55.69C268.72 56.38 268.94 57.15 269.52 57.59C269.54 57.61 269.57 57.63 269.59 57.64L269.6 57.65Z" stroke="#9A9A9A" stroke-linecap="round" stroke-linejoin="round"/>
<mask id="mask14_48_2" style="mask-type:luminance" maskUnits="userSpaceOnUse" x="266" y="11" width="59" height="45">
<path d="M300.87 13.0501C300.87 13.0501 314.32 10.7301 324.64 12.5301C324.64 12.5301 320.13 16.9801 289.24 24.1901C289.24 24.1901 310.64 24.5101 311.06 27.4801C311.48 30.4501 283.07 33.2201 283.07 33.2201C283.07 33.2201 300.12 35.1001 299.8 38.0401C299.48 40.9801 277.72 40.9801 277.72 40.9801C277.72 40.9801 292.85 44.0501 292.3 46.9801C291.75 49.9101 272.88 48.4201 272.88 48.4201C272.88 48.4201 285.42 53.0101 285.15 55.0401C284.87 57.0701 267.12 54.1301 267.12 54.1301C267.12 54.1301 265.11 40.0901 274.23 27.0301C274.23 27.0301 283.33 14.7001 300.9 13.0401L300.87 13.0501Z" fill="white"/>
</mask>
<g mask="url(#mask14_48_2)">
<path opacity="0.3" d="M300.87 13.0501C300.87 13.0501 314.32 10.7301 324.64 12.5301C324.64 12.5301 320.13 16.9801 289.24 24.1901C289.24 24.1901 310.64 24.5101 311.06 27.4801C311.48 30.4501 283.07 33.2201 283.07 33.2201C283.07 33.2201 300.12 35.1001 299.8 38.0401C299.48 40.9801 277.72 40.9801 277.72 40.9801C277.72 40.9801 292.85 44.0501 292.3 46.9801C291.75 49.9101 272.88 48.4201 272.88 48.4201C272.88 48.4201 285.42 53.0101 285.15 55.0401C284.87 57.0701 267.12 54.1301 267.12 54.1301C267.12 54.1301 265.11 40.0901 274.23 27.0301C274.23 27.0301 283.33 14.7001 300.9 13.0401L300.87 13.0501Z" stroke="#9A9A9A" stroke-miterlimit="10"/>
</g>
<path d="M300.87 13.0501C300.87 13.0501 314.32 10.7301 324.64 12.5301C324.64 12.5301 320.13 16.9801 289.24 24.1901C289.24 24.1901 310.64 24.5101 311.06 27.4801C311.48 30.4501 283.07 33.2201 283.07 33.2201C283.07 33.2201 300.12 35.1001 299.8 38.0401C299.48 40.9801 277.72 40.9801 277.72 40.9801C277.72 40.9801 292.85 44.0501 292.3 46.9801C291.75 49.9101 272.88 48.4201 272.88 48.4201C272.88 48.4201 285.42 53.0101 285.15 55.0401C284.87 57.0701 267.12 54.1301 267.12 54.1301C267.12 54.1301 265.11 40.0901 274.23 27.0301C274.23 27.0301 283.33 14.7001 300.9 13.0401L300.87 13.0501Z" stroke="#9A9A9A" stroke-linecap="round" stroke-linejoin="round"/>
<path d="M266.67 58.84C267.78 59.04 268.76 58.07 268.59 56.95C267.33 48.49 264.64 9.02001 324.64 12.52C324.64 12.52 297.97 7.27001 279.16 20.95C262.59 33.01 264.53 52.82 265.23 57.35C265.34 58.07 265.87 58.67 266.58 58.81C266.61 58.81 266.64 58.82 266.67 58.83V58.84Z" stroke="#9A9A9A" stroke-linecap="round" stroke-linejoin="round"/>
<mask id="mask15_48_2" style="mask-type:luminance" maskUnits="userSpaceOnUse" x="199" y="20" width="65" height="40">
<path d="M222.74 20.22C222.74 20.22 209.09 20.35 199.26 23.97C199.26 23.97 204.5 27.54 236.18 29.09C236.18 29.09 215.19 33.24 215.31 36.24C215.43 39.24 243.88 36.87 243.88 36.87C243.88 36.87 227.44 41.78 228.29 44.61C229.14 47.45 250.54 43.55 250.54 43.55C250.54 43.55 236.2 49.28 237.28 52.07C238.35 54.86 256.65 50 256.65 50C256.65 50 245.13 56.76 245.77 58.71C246.41 60.66 263.35 54.58 263.35 54.58C263.35 54.58 262.81 40.41 251.5 29.2C251.5 29.2 240.33 18.7 222.76 20.22H222.74Z" fill="white"/>
</mask>
<g mask="url(#mask15_48_2)">
<path opacity="0.3" d="M222.74 20.22C222.74 20.22 209.09 20.35 199.26 23.97C199.26 23.97 204.5 27.54 236.18 29.09C236.18 29.09 215.19 33.24 215.31 36.24C215.43 39.24 243.88 36.87 243.88 36.87C243.88 36.87 227.44 41.78 228.29 44.61C229.14 47.45 250.54 43.55 250.54 43.55C250.54 43.55 236.2 49.28 237.28 52.07C238.35 54.86 256.65 50 256.65 50C256.65 50 245.13 56.76 245.77 58.71C246.41 60.66 263.35 54.58 263.35 54.58C263.35 54.58 262.81 40.41 251.5 29.2C251.5 29.2 240.33 18.7 222.76 20.22H222.74Z" stroke="#9A9A9A" stroke-miterlimit="10"/>
</g>
<path d="M222.74 20.22C222.74 20.22 209.09 20.35 199.26 23.97C199.26 23.97 204.5 27.54 236.18 29.09C236.18 29.09 215.19 33.24 215.31 36.24C215.43 39.24 243.88 36.87 243.88 36.87C243.88 36.87 227.44 41.78 228.29 44.61C229.14 47.45 250.54 43.55 250.54 43.55C250.54 43.55 236.2 49.28 237.28 52.07C238.35 54.86 256.65 50 256.65 50C256.65 50 245.13 56.76 245.77 58.71C246.41 60.66 263.35 54.58 263.35 54.58C263.35 54.58 262.81 40.41 251.5 29.2C251.5 29.2 240.33 18.7 222.76 20.22H222.74Z" stroke="#9A9A9A" stroke-linecap="round" stroke-linejoin="round"/>
<path d="M264.6 59.1399C263.54 59.5299 262.41 58.7599 262.37 57.6299C262.09 49.0799 257.66 9.7699 199.26 23.9699C199.26 23.9699 224.56 14.0199 245.51 24.1099C263.98 32.9999 265.61 52.8399 265.74 57.4199C265.76 58.1399 265.35 58.8299 264.68 59.0999C264.65 59.1099 264.62 59.1199 264.6 59.1299V59.1399Z" stroke="#9A9A9A" stroke-linecap="round" stroke-linejoin="round"/>
<mask id="mask16_48_2" style="mask-type:luminance" maskUnits="userSpaceOnUse" x="188" y="35" width="72" height="32">
<path d="M207.97 40.68C207.97 40.68 195.57 46.4 188.1 53.73C188.1 53.73 194.34 54.84 223.88 43.26C223.88 43.26 206.44 55.66 207.77 58.34C209.11 61.03 234.09 47.2 234.09 47.2C234.09 47.2 221.11 58.42 223.05 60.66C224.98 62.9 242.9 50.57 242.9 50.57C242.9 50.57 232.17 61.68 234.3 63.78C236.42 65.88 251.11 53.95 251.11 53.95C251.11 53.95 243.38 64.84 244.76 66.35C246.14 67.86 259.1 55.38 259.1 55.38C259.1 55.38 252.8 42.68 237.88 37.09C237.88 37.09 223.39 32.09 207.98 40.69L207.97 40.68Z" fill="white"/>
</mask>
<g mask="url(#mask16_48_2)">
<path opacity="0.3" d="M207.97 40.68C207.97 40.68 195.57 46.4 188.1 53.73C188.1 53.73 194.34 54.84 223.88 43.26C223.88 43.26 206.44 55.66 207.77 58.34C209.11 61.03 234.09 47.2 234.09 47.2C234.09 47.2 221.11 58.42 223.05 60.66C224.98 62.9 242.9 50.57 242.9 50.57C242.9 50.57 232.17 61.68 234.3 63.78C236.42 65.88 251.11 53.95 251.11 53.95C251.11 53.95 243.38 64.84 244.76 66.35C246.14 67.86 259.1 55.38 259.1 55.38C259.1 55.38 252.8 42.68 237.88 37.09C237.88 37.09 223.39 32.09 207.98 40.69L207.97 40.68Z" stroke="#9A9A9A" stroke-miterlimit="10"/>
</g>
<path d="M207.97 40.68C207.97 40.68 195.57 46.4 188.1 53.73C188.1 53.73 194.34 54.84 223.88 43.26C223.88 43.26 206.44 55.66 207.77 58.34C209.11 61.03 234.09 47.2 234.09 47.2C234.09 47.2 221.11 58.42 223.05 60.66C224.98 62.9 242.9 50.57 242.9 50.57C242.9 50.57 232.17 61.68 234.3 63.78C236.42 65.88 251.11 53.95 251.11 53.95C251.11 53.95 243.38 64.84 244.76 66.35C246.14 67.86 259.1 55.38 259.1 55.38C259.1 55.38 252.8 42.68 237.88 37.09C237.88 37.09 223.39 32.09 207.98 40.69L207.97 40.68Z" stroke="#9A9A9A" stroke-linecap="round" stroke-linejoin="round"/>
<path d="M262.11 59.01C261.31 59.8 259.96 59.56 259.46 58.54C255.7 50.86 235.54 16.82 188.1 53.72C188.1 53.72 207.09 34.27 230.34 34.88C250.83 35.42 260.45 52.84 262.45 56.97C262.77 57.62 262.67 58.42 262.17 58.94C262.15 58.96 262.13 58.98 262.11 59V59.01Z" stroke="#9A9A9A" stroke-linecap="round" stroke-linejoin="round"/>
<path d="M282.27 106.21C270.29 109.89 262.06 106.62 261.68 106.47C260.94 106.17 260.59 105.33 260.89 104.59C261.19 103.86 262.03 103.5 262.76 103.8C262.9 103.86 272.34 107.52 285.37 102.02C286.1 101.71 286.95 102.05 287.25 102.79C287.56 103.52 287.22 104.37 286.48 104.68C285.03 105.29 283.62 105.8 282.26 106.22L282.27 106.21Z" stroke="#9A9A9A" stroke-linecap="round" stroke-linejoin="round"/>
</g>
<defs>
<clipPath id="clip0_48_2">
<rect width="342.9" height="233.64" fill="white"/>
</clipPath>
</defs>
</svg>
